<?xml version="1.0" encoding="UTF-8"?>
<svg id="Calque_1" data-name="Calque 1" xmlns="http://www.w3.org/2000/svg" viewBox="0 0 383.11 426.17">
  <defs>
    <style>
      .cls-1 {
        fill: #4452ff;
      }
    </style>
  </defs>
  <path class="cls-1" d="M167.17,420.2c6.67,3.85,15.33,5.98,24.38,5.98s17.71-2.13,24.38-5.98l142.79-82.44c11.42-6.59,20.52-20.03,23.41-33.51-123.31,7.02-204.28,45.83-257.72,91.27l42.75,24.68Z"/>
  <path class="cls-1" d="M358.73,88.41L215.94,5.98c-6.67-3.86-15.33-5.98-24.38-5.98s-17.71,2.12-24.38,5.98L24.38,88.41C10.48,96.44,0,114.59,0,130.64v164.89c0,16.05,10.48,34.21,24.38,42.23l11.04,6.37c124.96-62.31,266.54-59.8,347.69-51.04V130.64c0-16.05-10.48-34.2-24.38-42.23Zm-90.51,171.06H114.89v-79.66c0-1.77,1.97-5.18,3.51-6.07l69.65-40.22c.4-.23,1.65-.67,3.51-.67s3.11,.44,3.51,.67l69.65,40.22c1.54,.89,3.51,4.3,3.51,6.07v79.66Zm44.94,0h-22.4v-79.66c0-9.88-6.22-20.65-14.78-25.6l-69.65-40.21c-4.12-2.38-9.37-3.68-14.78-3.68s-10.66,1.31-14.78,3.69l-69.65,40.21c-8.57,4.94-14.79,15.71-14.79,25.6v79.66h-22.39v-107.14c0-4.77,4.05-11.79,8.18-14.17l105.24-60.76c1.93-1.11,4.99-1.78,8.19-1.78s6.25,.67,8.18,1.78l105.25,60.76c4.12,2.39,8.18,9.41,8.18,14.17v107.14Zm47.4,0h-24.86v-107.14c0-12.81-8.36-27.29-19.45-33.7l-105.25-60.76c-5.36-3.1-12.27-4.8-19.45-4.8s-14.09,1.71-19.46,4.8l-105.24,60.76c-11.09,6.41-19.46,20.89-19.46,33.7v107.14H22.55V130.64c0-7.92,6.25-18.75,13.11-22.7L178.45,25.5c3.25-1.88,8.03-2.95,13.11-2.95s9.86,1.08,13.11,2.95l142.79,82.44c6.86,3.96,13.11,14.78,13.11,22.7v128.82Z"/>
</svg>