<?xml version="1.0" encoding="UTF-8"?>
<svg id="Calque_1" data-name="Calque 1" xmlns="http://www.w3.org/2000/svg" viewBox="0 0 201 201">
  <defs>
    <style>
      .cls-1 {
        fill: #ccc;
      }

      .cls-2 {
        fill: #f2f2f2;
      }
    </style>
  </defs>
  <path class="cls-1" d="M100,117c34.01,0,63.27,20.22,76.48,49.28,15.27-17.63,24.52-40.62,24.52-65.78C201,45,156,0,100.5,0S0,45,0,100.5c0,24.79,8.98,47.48,23.86,65.01,13.38-28.65,42.43-48.51,76.14-48.51Zm0-94c23.75,0,43,19.25,43,43s-19.25,43-43,43-43-19.25-43-43,19.25-43,43-43Z"/>
  <circle class="cls-2" cx="100" cy="66" r="43"/>
  <path class="cls-2" d="M100.5,201c30.35,0,57.56-13.45,75.98-34.72-13.21-29.06-42.48-49.28-76.48-49.28s-62.76,19.86-76.14,48.51c18.43,21.71,45.92,35.49,76.64,35.49Z"/>
</svg>